<svg width="24" height="24" viewBox="0 0 24 24" fill="none" xmlns="http://www.w3.org/2000/svg">
<path d="M12 2C17.5228 2 22 6.47715 22 12C22 17.5228 17.5228 22 12 22C6.47715 22 2 17.5228 2 12C2 6.47715 6.47715 2 12 2ZM16.9492 8.38086C16.5587 7.99064 15.9256 7.99044 15.5352 8.38086L10.5859 13.3311L8.46387 11.21C8.07334 10.8194 7.44033 10.8194 7.0498 11.21C6.65965 11.6005 6.6594 12.2336 7.0498 12.624L9.87891 15.4521C10.2694 15.8425 10.9025 15.8426 11.293 15.4521L16.9492 9.79492C17.3397 9.4044 17.3397 8.77138 16.9492 8.38086Z" fill="#292929"/>
</svg>
