<svg width="24" height="24" viewBox="0 0 24 24" fill="none" xmlns="http://www.w3.org/2000/svg">
<path fill-rule="evenodd" clip-rule="evenodd" d="M12.0117 13.3324L17.3891 18.7098C17.5683 18.883 17.8085 18.9788 18.0577 18.9766C18.3069 18.9744 18.5453 18.8745 18.7216 18.6982C18.8978 18.522 18.9978 18.2836 19 18.0343C19.0021 17.7851 18.9063 17.545 18.7332 17.3657L13.3558 11.9883L18.7332 6.61094C18.9063 6.43166 19.0021 6.19155 19 5.94231C18.9978 5.69307 18.8978 5.45466 18.7216 5.27842C18.5453 5.10217 18.3069 5.0022 18.0577 5.00004C17.8085 4.99787 17.5683 5.09368 17.3891 5.26684L12.0117 10.6442L6.6343 5.26684C6.45422 5.09796 6.2155 5.00578 5.96865 5.00979C5.7218 5.01379 5.4862 5.11368 5.31169 5.28831C5.13718 5.46295 5.03746 5.69862 5.03363 5.94547C5.02979 6.19232 5.12215 6.43098 5.29115 6.61094L10.6676 11.9883L5.2902 17.3657C5.19941 17.4534 5.12699 17.5583 5.07717 17.6742C5.02736 17.7902 5.00113 17.915 5.00004 18.0412C4.99894 18.1674 5.02299 18.2926 5.07079 18.4094C5.11858 18.5262 5.18916 18.6323 5.27842 18.7216C5.36767 18.8108 5.4738 18.8814 5.59062 18.9292C5.70744 18.977 5.83261 19.0011 5.95883 19C6.08505 18.9989 6.20978 18.9726 6.32575 18.9228C6.44173 18.873 6.54662 18.8006 6.6343 18.7098L12.0117 13.3324Z" fill="#292929"/>
</svg>
