<svg width="24" height="24" viewBox="0 0 24 24" fill="none" xmlns="http://www.w3.org/2000/svg">
<path d="M6.06459 19.1471H17.9344C18.3153 19.1473 18.6855 19.0201 18.9858 18.7857C19.2862 18.5513 19.4996 18.2233 19.592 17.8537L21.4462 10.7962C21.4713 10.6948 21.4699 10.5886 21.4418 10.4879C21.4138 10.3872 21.3602 10.2955 21.2863 10.2216C21.2123 10.1478 21.1205 10.0943 21.0198 10.0664C20.9191 10.0386 20.8129 10.0372 20.7115 10.0625L19.68 10.3204C18.834 10.532 17.945 10.4961 17.1187 10.2171C16.2925 9.93814 15.5637 9.42775 15.0191 8.74664L12.945 6.15371C12.8314 6.01203 12.6875 5.89768 12.5239 5.81909C12.3602 5.74051 12.181 5.69971 11.9995 5.69971C11.8179 5.69971 11.6387 5.74051 11.4751 5.81909C11.3114 5.89768 11.1675 6.01203 11.054 6.15371L8.97984 8.74664C8.43521 9.42775 7.70645 9.93814 6.8802 10.2171C6.05394 10.4961 5.16495 10.532 4.31891 10.3204L3.28747 10.0625C3.18607 10.0372 3.07985 10.0386 2.97912 10.0664C2.8784 10.0943 2.7866 10.1478 2.71265 10.2216C2.6387 10.2955 2.58511 10.3872 2.55709 10.4879C2.52908 10.5886 2.52759 10.6948 2.55277 10.7962L4.40793 17.8537C4.50034 18.2231 4.71357 18.551 5.01373 18.7854C5.3139 19.0197 5.68377 19.147 6.06459 19.1471Z" fill="#292929"/>
<path d="M2.5344 8.7671C3.38209 8.7671 4.06928 8.07991 4.06928 7.23222C4.06928 6.38452 3.38209 5.69733 2.5344 5.69733C1.6867 5.69733 0.999512 6.38452 0.999512 7.23222C0.999512 8.07991 1.6867 8.7671 2.5344 8.7671Z" fill="#292929"/>
<path d="M21.4646 8.7671C22.3123 8.7671 22.9995 8.07991 22.9995 7.23222C22.9995 6.38452 22.3123 5.69733 21.4646 5.69733C20.6169 5.69733 19.9297 6.38452 19.9297 7.23222C19.9297 8.07991 20.6169 8.7671 21.4646 8.7671Z" fill="#292929"/>
<path d="M11.9996 4.41828C12.8473 4.41828 13.5345 3.73109 13.5345 2.88339C13.5345 2.0357 12.8473 1.34851 11.9996 1.34851C11.1519 1.34851 10.4647 2.0357 10.4647 2.88339C10.4647 3.73109 11.1519 4.41828 11.9996 4.41828Z" fill="#292929"/>
<path d="M18.139 22.8369H5.85998C5.58859 22.8369 5.32832 22.7291 5.13643 22.5372C4.94453 22.3453 4.83672 22.085 4.83672 21.8136C4.83672 21.5423 4.94453 21.282 5.13643 21.0901C5.32832 20.8982 5.58859 20.7904 5.85998 20.7904H18.139C18.4104 20.7904 18.6707 20.8982 18.8626 21.0901C19.0545 21.282 19.1623 21.5423 19.1623 21.8136C19.1623 22.085 19.0545 22.3453 18.8626 22.5372C18.6707 22.7291 18.4104 22.8369 18.139 22.8369Z" fill="#292929"/>
</svg>
