<svg width="24" height="24" viewBox="0 0 24 24" fill="none" xmlns="http://www.w3.org/2000/svg">
<path fill-rule="evenodd" clip-rule="evenodd" d="M7.22297 1.74114C8.58426 1.3904 10.016 1.42282 11.36 1.83482C12.7041 2.24682 13.908 3.02235 14.8389 4.07573C15.7698 5.1291 16.3913 6.41932 16.6349 7.80381C16.8784 9.1883 16.7345 10.6132 16.219 11.921L21.2278 16.1609C21.6076 16.4819 21.9167 16.8783 22.1355 17.3249C22.3543 17.7716 22.478 18.2588 22.4988 18.7557C22.5196 19.2526 22.437 19.7484 22.2563 20.2118C22.0756 20.6751 21.8007 21.096 21.449 21.4476C21.0973 21.7992 20.6764 22.0741 20.213 22.2547C19.7496 22.4353 19.2538 22.5177 18.7569 22.4968C18.2599 22.4759 17.7728 22.3521 17.3262 22.1332C16.8796 21.9143 16.4833 21.6051 16.1623 21.2252L11.9246 16.2186C10.6167 16.7349 9.19136 16.8795 7.80633 16.6364C6.42131 16.3932 5.13051 15.7718 4.07664 14.8408C3.02277 13.9098 2.24689 12.7054 1.83478 11.361C1.42267 10.0165 1.39039 8.58426 1.74151 7.2226C1.79101 7.03127 1.89115 6.85681 2.03139 6.71757C2.17163 6.57832 2.3468 6.47943 2.53847 6.43129C2.73015 6.38315 2.93125 6.38753 3.12065 6.44399C3.31004 6.50044 3.48073 6.60687 3.61477 6.7521L6.93109 10.3538L9.43276 9.43348L10.3552 6.92854L6.75138 3.61766C6.60529 3.48367 6.49811 3.31269 6.4412 3.12279C6.38429 2.9329 6.37975 2.73115 6.42807 2.53889C6.47638 2.34663 6.57576 2.171 6.71568 2.03057C6.85561 1.89015 7.03088 1.79014 7.22297 1.74114Z" fill="#27383F"/>
</svg>
