<svg width="24" height="24" viewBox="0 0 24 24" fill="none" xmlns="http://www.w3.org/2000/svg">
<path d="M15.1504 3.59961C16.3097 3.59986 17.2496 4.53993 17.25 5.69922V6.75H18.8457C19.4834 6.75014 20.0869 7.0402 20.4854 7.53809L22.04 9.48145C22.3376 9.85363 22.4999 10.3164 22.5 10.793V15.1494C22.5 16.3092 21.5592 17.25 20.3994 17.25H19.3496L19.3457 17.4121C19.2613 19.0764 17.8845 20.4004 16.1992 20.4004C14.5141 20.4002 13.1381 19.0763 13.0537 17.4121L13.0498 17.25H9.89941L9.89551 17.4121C9.81112 19.0764 8.43433 20.4004 6.74902 20.4004C5.06382 20.4003 3.68792 19.0764 3.60352 17.4121L3.59961 17.25L3.38574 17.2383C2.32663 17.1309 1.5 16.2368 1.5 15.1494V6.69922C1.50028 4.72708 2.60372 3.59975 4.59961 3.59961H15.1504ZM6.69434 15.9629C5.87922 15.9629 5.21875 16.6243 5.21875 17.4395C5.21896 18.2544 5.87935 18.915 6.69434 18.915C7.50932 18.915 8.16971 18.2544 8.16992 17.4395C8.16992 16.6243 7.50945 15.9629 6.69434 15.9629ZM16.1992 15.7744C15.3841 15.7744 14.7236 16.4349 14.7236 17.25C14.7237 18.065 15.3842 18.7256 16.1992 18.7256C17.0143 18.7256 17.6747 18.065 17.6748 17.25C17.6748 16.4349 17.0143 15.7744 16.1992 15.7744ZM17.25 13.0498H20.3994V10.793L18.8457 8.84961H17.25V13.0498Z" fill="#292929"/>
</svg>
