<svg preserveAspectRatio="none" width="100%" height="100%" overflow="visible" style="display: block;" viewBox="0 0 13.3333 13.2707" fill="none" xmlns="http://www.w3.org/2000/svg">
<g id="Group">
<path id="Vector" fill-rule="evenodd" clip-rule="evenodd" d="M5.83533 0.0687097C5.65283 0.00779364 5.4593 -0.0129031 5.26805 0.00804095C5.07679 0.028985 4.89233 0.0910735 4.72733 0.190043L1.98067 1.83804C1.78323 1.95651 1.61984 2.12408 1.5064 2.32444C1.39295 2.5248 1.33333 2.75113 1.33333 2.98138V11.9374H0.666667C0.489856 11.9374 0.320286 12.0076 0.195262 12.1326C0.0702379 12.2577 0 12.4272 0 12.604C0 12.7809 0.0702379 12.9504 0.195262 13.0754C0.320286 13.2005 0.489856 13.2707 0.666667 13.2707H12.6667C12.8435 13.2707 13.013 13.2005 13.1381 13.0754C13.2631 12.9504 13.3333 12.7809 13.3333 12.604C13.3333 12.4272 13.2631 12.2577 13.1381 12.1326C13.013 12.0076 12.8435 11.9374 12.6667 11.9374H12V3.08404C11.9998 2.8044 11.9117 2.53189 11.7482 2.30505C11.5847 2.07822 11.3539 1.90855 11.0887 1.82004L5.83533 0.0687097ZM10.6667 11.9374V3.08404L6 1.52938V11.9374H10.6667ZM4.66667 1.78138L2.66667 2.98138V11.9374H4.66667V1.78138Z" fill="var(--fill-0, #292929)"/>
</g>
</svg>
