<svg preserveAspectRatio="none" width="100%" height="100%" overflow="visible" style="display: block;" viewBox="0 0 20 20" fill="none" xmlns="http://www.w3.org/2000/svg">
<path id="Vector (Stroke)" d="M2 7V18H13V7H2ZM18 13V2H7V4H5V2C5 0.89543 5.89543 2.0133e-08 7 0H18C19.1046 0 20 0.895431 20 2V13C20 14.1046 19.1046 15 18 15H16V13H18ZM15 18C15 19.1046 14.1046 20 13 20H2C0.89543 20 2.0133e-08 19.1046 0 18V7C0 5.89543 0.895431 5 2 5H13C14.1046 5 15 5.89543 15 7V18Z" fill="var(--fill-0, #292929)"/>
</svg>
