<svg preserveAspectRatio="none" width="100%" height="100%" overflow="visible" style="display: block;" viewBox="0 0 15.4636 15.4636" fill="none" xmlns="http://www.w3.org/2000/svg">
<path id="Vector (Stroke)" fill-rule="evenodd" clip-rule="evenodd" d="M9.08291 0.488155C9.73379 -0.162719 10.7891 -0.162718 11.4399 0.488155L14.9755 4.02369C15.6263 4.67456 15.6263 5.72984 14.9755 6.38071L6.38071 14.9755C6.06815 15.288 5.64423 15.4636 5.2022 15.4636H0.833333C0.373096 15.4636 0 15.0905 0 14.6303V10.2614C0 9.8194 0.175595 9.39547 0.488155 9.08291L9.08291 0.488155ZM8.82326 3.10483L12.3588 6.64037L13.797 5.2022L10.2614 1.66667L8.82326 3.10483ZM11.1803 7.81888L7.64474 4.28335L1.66667 10.2614V13.797H5.2022L11.1803 7.81888Z" fill="var(--fill-0, #292929)"/>
</svg>
