<svg preserveAspectRatio="none" width="100%" height="100%" overflow="visible" style="display: block;" viewBox="0 0 16 16" fill="none" xmlns="http://www.w3.org/2000/svg">
<g id="Group">
<g id="Vector">
</g>
<path id="Vector_2" fill-rule="evenodd" clip-rule="evenodd" d="M7.33333 1.33333C6.44928 1.33333 5.60143 1.68452 4.97631 2.30964C4.35119 2.93477 4 3.78261 4 4.66667C4 5.55072 4.35119 6.39857 4.97631 7.02369C5.60143 7.64881 6.44928 8 7.33333 8C8.21739 8 9.06523 7.64881 9.69036 7.02369C10.3155 6.39857 10.6667 5.55072 10.6667 4.66667C10.6667 3.78261 10.3155 2.93477 9.69036 2.30964C9.06523 1.68452 8.21739 1.33333 7.33333 1.33333ZM5.33333 4.66667C5.33333 4.40402 5.38506 4.14395 5.48557 3.9013C5.58608 3.65865 5.7334 3.43817 5.91912 3.25245C6.10484 3.06674 6.32532 2.91942 6.56797 2.81891C6.81062 2.7184 7.07069 2.66667 7.33333 2.66667C7.59598 2.66667 7.85605 2.7184 8.0987 2.81891C8.34135 2.91942 8.56183 3.06674 8.74755 3.25245C8.93326 3.43817 9.08058 3.65865 9.18109 3.9013C9.2816 4.14395 9.33333 4.40402 9.33333 4.66667C9.33333 5.1971 9.12262 5.70581 8.74755 6.08088C8.37247 6.45595 7.86377 6.66667 7.33333 6.66667C6.8029 6.66667 6.29419 6.45595 5.91912 6.08088C5.54405 5.70581 5.33333 5.1971 5.33333 4.66667ZM2.66667 12.3333C2.66667 12.2133 2.72667 12.0073 2.942 11.734C3.15267 11.4673 3.478 11.182 3.90933 10.9193C4.77133 10.3927 5.98467 10 7.33333 10C7.58333 10 7.82933 10.0133 8.07 10.0393C8.24593 10.058 8.42206 10.006 8.55965 9.89478C8.69724 9.78357 8.78501 9.62226 8.80367 9.44633C8.82232 9.27041 8.77032 9.09427 8.65911 8.95668C8.5479 8.8191 8.38659 8.73132 8.21067 8.71267C7.9192 8.6824 7.62637 8.66705 7.33333 8.66667C5.73667 8.66667 4.28333 9.12933 3.21467 9.78133C2.68133 10.1067 2.22533 10.4907 1.896 10.908C1.572 11.3173 1.33333 11.8087 1.33333 12.3333C1.33333 12.8967 1.60733 13.3407 2.002 13.6573C2.37533 13.9573 2.868 14.156 3.39133 14.2947C4.44333 14.5727 5.84733 14.6667 7.33333 14.6667L7.79 14.6633C7.87755 14.6622 7.96401 14.6437 8.04444 14.6091C8.12487 14.5745 8.1977 14.5244 8.25877 14.4617C8.31984 14.399 8.36795 14.3248 8.40036 14.2435C8.43277 14.1621 8.44885 14.0752 8.44767 13.9877C8.44648 13.9001 8.42807 13.8137 8.39348 13.7332C8.35888 13.6528 8.30878 13.58 8.24604 13.5189C8.1833 13.4578 8.10914 13.4097 8.02781 13.3773C7.94647 13.3449 7.85955 13.3288 7.772 13.33L7.33333 13.3333C5.87333 13.3333 4.61133 13.238 3.73333 13.0053C3.29133 12.8887 3.00267 12.7507 2.83667 12.6173C2.69133 12.5007 2.66667 12.4147 2.66667 12.3333ZM11.3333 14C11.3334 13.8367 11.3933 13.6791 11.5018 13.5571C11.6103 13.4351 11.7598 13.3571 11.922 13.338L12.0013 13.3333C12.1713 13.3335 12.3347 13.3986 12.4582 13.5152C12.5818 13.6319 12.6562 13.7913 12.6661 13.9609C12.6761 14.1306 12.6209 14.2976 12.5118 14.4279C12.4028 14.5582 12.2481 14.6419 12.0793 14.662L12 14.6667C11.8232 14.6667 11.6536 14.5964 11.5286 14.4714C11.4036 14.3464 11.3333 14.1768 11.3333 14ZM11.7113 10.8333C11.748 10.7698 11.8047 10.7201 11.8724 10.6921C11.9402 10.664 12.0154 10.659 12.0863 10.678C12.1571 10.697 12.2198 10.7389 12.2644 10.7971C12.3091 10.8553 12.3333 10.9266 12.3333 11C12.3333 11.09 12.3013 11.17 12.1193 11.32L12.0227 11.396L11.9493 11.4507C11.9 11.4873 11.8413 11.5307 11.7873 11.5747L11.6947 11.652C11.5486 11.7768 11.4366 11.9367 11.3693 12.1167C11.3148 12.276 11.3225 12.45 11.3911 12.6039C11.4596 12.7577 11.5838 12.8799 11.7387 12.9459C11.8936 13.0119 12.0678 13.0169 12.2262 12.9598C12.3846 12.9027 12.5155 12.7877 12.5927 12.638L12.6573 12.5867L12.8953 12.4067L12.9667 12.3493L13.0873 12.244C13.358 11.9947 13.6667 11.5987 13.6667 11C13.6669 10.6334 13.5463 10.2769 13.3234 9.98574C13.1005 9.69462 12.7879 9.48511 12.4339 9.38966C12.0799 9.29421 11.7043 9.31816 11.3653 9.45778C11.0263 9.59741 10.7428 9.84493 10.5587 10.162C10.4696 10.3149 10.445 10.4968 10.4901 10.6678C10.5353 10.8389 10.6465 10.985 10.7993 11.074C10.9522 11.163 11.1341 11.1877 11.3052 11.1425C11.4762 11.0974 11.6223 10.9862 11.7113 10.8333Z" fill="var(--fill-0, #B8057D)"/>
</g>
</svg>
