<svg preserveAspectRatio="none" width="100%" height="100%" overflow="visible" style="display: block;" viewBox="0 0 12 13.3333" fill="none" xmlns="http://www.w3.org/2000/svg">
<g id="Group">
<path id="Vector" fill-rule="evenodd" clip-rule="evenodd" d="M12 0.84401C12 0.213975 11.33 -0.206944 10.766 0.10572C10.008 0.525294 7.764 1.74771 6.42067 2.2863C4.85733 2.9123 3.51133 3.14764 1.96867 3.22025C0.9 3.27001 0 4.14076 0 5.26434V7.95392C0 9.07749 0.9 9.94824 1.96867 9.998C2.15133 10.0067 2.33067 10.0175 2.50867 10.0309L2.01267 12.5289C1.97801 12.7038 2.01368 12.8855 2.11182 13.0339C2.20997 13.1823 2.36255 13.2854 2.536 13.3203C2.70945 13.3553 2.88957 13.3193 3.03672 13.2203C3.18387 13.1213 3.28601 12.9674 3.32067 12.7925L3.836 10.1916C4.678 10.3362 5.51267 10.5682 6.42067 10.932C7.764 11.4705 10.0073 12.6936 10.766 13.1125C11.33 13.4252 12 13.0043 12 12.3742V0.84401ZM4 8.85627C4.94533 9.01428 5.88867 9.27181 6.91333 9.68264C8.01467 10.1237 9.63733 10.973 10.6667 11.529V1.68921C9.63733 2.24528 8.01467 3.09452 6.91333 3.53561C5.88867 3.94577 4.94533 4.20397 4 4.36265V8.85627ZM2.66667 4.52403C2.45667 4.54017 2.24533 4.55361 2.03067 4.5637C1.62867 4.58253 1.33333 4.90259 1.33333 5.26434V7.95392C1.33333 8.31567 1.62867 8.63573 2.03067 8.65455C2.24533 8.66464 2.45733 8.67809 2.66667 8.6949V4.52403Z" fill="var(--fill-0, #292929)"/>
</g>
</svg>
