<svg preserveAspectRatio="none" width="100%" height="100%" overflow="visible" style="display: block;" viewBox="0 0 11.9134 12" fill="none" xmlns="http://www.w3.org/2000/svg">
<g id="Group">
<path id="Vector" d="M9.99608 0C10.3172 2.59099e-05 10.6276 0.115964 10.8701 0.326503C11.1126 0.537043 11.271 0.828037 11.3161 1.146L11.3274 1.25L11.9107 10.5833C11.9328 10.9335 11.8159 11.2783 11.5854 11.5429C11.3549 11.8075 11.0293 11.9705 10.6794 11.9967L10.5794 12H1.33342C0.982548 12 0.645812 11.8617 0.396218 11.6151C0.146625 11.3686 0.00429242 11.0335 8.2016e-05 10.6827L0.00208203 10.5833L0.585415 1.25C0.605477 0.92938 0.740622 0.626782 0.965995 0.397857C1.19137 0.168932 1.49181 0.0290728 1.81208 0.00400003L1.91608 0H9.99608ZM9.99608 1.33333H1.91608L1.33275 10.6667H10.5794L9.99608 1.33333ZM7.95608 2.66667C8.13289 2.66667 8.30246 2.7369 8.42749 2.86193C8.55251 2.98695 8.62275 3.15652 8.62275 3.33333C8.62275 4.04058 8.3418 4.71885 7.8417 5.21895C7.3416 5.71905 6.66333 6 5.95608 6C5.24884 6 4.57056 5.71905 4.07046 5.21895C3.57037 4.71885 3.28942 4.04058 3.28942 3.33333C3.28942 3.15652 3.35965 2.98695 3.48468 2.86193C3.6097 2.7369 3.77927 2.66667 3.95608 2.66667C4.13289 2.66667 4.30246 2.7369 4.42749 2.86193C4.55251 2.98695 4.62275 3.15652 4.62275 3.33333C4.6212 3.67932 4.75421 4.01236 4.99367 4.2621C5.23313 4.51184 5.56029 4.65871 5.90604 4.67169C6.25179 4.68468 6.58905 4.56275 6.84656 4.33167C7.10408 4.10059 7.26168 3.77846 7.28608 3.43333L7.28942 3.33333C7.28942 3.15652 7.35965 2.98695 7.48468 2.86193C7.6097 2.7369 7.77927 2.66667 7.95608 2.66667Z" fill="var(--fill-0, #292929)"/>
</g>
</svg>
