<svg preserveAspectRatio="none" width="100%" height="100%" overflow="visible" style="display: block;" viewBox="0 0 12 13.0313" fill="none" xmlns="http://www.w3.org/2000/svg">
<path id="Vector (Stroke)" fill-rule="evenodd" clip-rule="evenodd" d="M4.66667 0.357266C5.49174 -0.119089 6.50826 -0.119088 7.33333 0.357266L10.6667 2.28177C11.4917 2.75812 12 3.63846 12 4.59117V8.44017C12 9.39288 11.4917 10.2732 10.6667 10.7496L7.33333 12.6741C6.50826 13.1504 5.49174 13.1504 4.66667 12.6741L1.33333 10.7496C0.508264 10.2732 0 9.39288 0 8.44017V4.59117C0 3.63846 0.508264 2.75812 1.33333 2.28177L4.66667 0.357266ZM6.66667 1.51197C6.25413 1.27379 5.74587 1.27379 5.33333 1.51197L2 3.43647C1.58747 3.67464 1.33333 4.11481 1.33333 4.59117V8.44017C1.33333 8.91652 1.58747 9.35669 2 9.59487L5.33333 11.5194C5.74587 11.7575 6.25413 11.7575 6.66667 11.5194L10 9.59487C10.4125 9.35669 10.6667 8.91652 10.6667 8.44017V4.59117C10.6667 4.11481 10.4125 3.67464 10 3.43647L6.66667 1.51197ZM6 5.18279C5.26362 5.18279 4.66667 5.77974 4.66667 6.51612C4.66667 7.2525 5.26362 7.84945 6 7.84945C6.73638 7.84945 7.33333 7.2525 7.33333 6.51612C7.33333 5.77974 6.73638 5.18279 6 5.18279ZM3.33333 6.51612C3.33333 5.04336 4.52724 3.84945 6 3.84945C7.47276 3.84945 8.66667 5.04336 8.66667 6.51612C8.66667 7.98888 7.47276 9.18279 6 9.18279C4.52724 9.18279 3.33333 7.98888 3.33333 6.51612Z" fill="var(--fill-0, #292929)"/>
</svg>
