<svg preserveAspectRatio="none" width="100%" height="100%" overflow="visible" style="display: block;" viewBox="0 0 13.4002 11.4467" fill="none" xmlns="http://www.w3.org/2000/svg">
<g id="Group">
<path id="Vector" fill-rule="evenodd" clip-rule="evenodd" d="M13.3869 1.16268C13.416 0.986227 13.3972 0.805202 13.3325 0.638468C13.2679 0.471734 13.1597 0.325393 13.0192 0.214691C12.8788 0.103989 12.7112 0.0329785 12.534 0.00905707C12.3567 -0.0148643 12.1763 0.00917885 12.0116 0.078682L0.611562 4.87868C-0.183105 5.21335 -0.223772 6.36268 0.611562 6.70935C1.43871 7.05431 2.27791 7.36962 3.12756 7.65468C3.90623 7.91201 4.75556 8.15002 5.43623 8.21735C5.62223 8.44002 5.85623 8.65468 6.0949 8.85068C6.45956 9.15068 6.89823 9.45935 7.35156 9.75535C8.25956 10.3487 9.2669 10.916 9.94556 11.2853C10.7569 11.7253 11.7282 11.2187 11.8736 10.334L13.3869 1.16268ZM1.88956 5.78735L11.9722 1.54202L10.5602 10.102C9.89423 9.74001 8.9349 9.19801 8.08023 8.63935C7.68632 8.38644 7.30601 8.11295 6.9409 7.82001C6.8433 7.7403 6.74857 7.65714 6.6569 7.57068L9.29756 4.93068C9.42266 4.80568 9.49297 4.6361 9.49303 4.45925C9.49309 4.2824 9.4229 4.11278 9.2979 3.98768C9.17289 3.86259 9.00331 3.79228 8.82646 3.79221C8.64962 3.79215 8.47999 3.86234 8.3549 3.98735L5.46356 6.87868C4.97423 6.81601 4.2929 6.63468 3.5449 6.38801C2.98803 6.20251 2.43627 6.00199 1.89023 5.78668L1.88956 5.78735Z" fill="var(--fill-0, #292929)"/>
</g>
</svg>
