<svg width="24" height="24" viewBox="0 0 24 24" fill="none" xmlns="http://www.w3.org/2000/svg">
<g clip-path="url(#clip0_33_13267)">
<path d="M20.7651 7.98189L20.7871 8.17189L20.7941 8.36589V15.6339C20.794 16.0425 20.6937 16.4448 20.5021 16.8057C20.3106 17.1665 20.0334 17.4749 19.6951 17.7039L19.5451 17.7989L13.2501 21.4329L13.1261 21.4999L13.0001 21.5599V12.5699L20.7651 7.98189ZM3.23505 7.98189L11.0001 12.5709V21.5589C10.9144 21.5216 10.831 21.4795 10.7501 21.4329L4.45605 17.7989C4.07602 17.5795 3.76043 17.2639 3.54101 16.8839C3.32159 16.5038 3.20607 16.0727 3.20605 15.6339V8.36589C3.20605 8.23589 3.21605 8.10789 3.23605 7.98189H3.23505ZM13.2501 2.56689L19.5441 6.20089C19.5941 6.23089 19.6441 6.26089 19.6921 6.29289L12.0001 10.8399L4.30805 6.29189C4.35628 6.25948 4.40565 6.2288 4.45605 6.19989L10.7501 2.56589C11.1301 2.34647 11.5612 2.23096 12.0001 2.23096C12.4389 2.23096 12.87 2.34747 13.2501 2.56689Z" fill="#292929"/>
</g>
<defs>
<clipPath id="clip0_33_13267">
<rect width="24" height="24" fill="white"/>
</clipPath>
</defs>
</svg>
