<svg width="24" height="24" viewBox="0 0 24 24" fill="none" xmlns="http://www.w3.org/2000/svg">
<path d="M20 8.39551C20 6.51496 18.5119 5 16.5 5C15.9615 5 15.4222 5.11732 14.9229 5.33496L14.7119 5.43457C14.2051 5.69039 13.7662 5.91157 13.4268 6.06543C13.2556 6.14299 13.064 6.22525 12.8701 6.29004C12.7249 6.33857 12.4609 6.41911 12.1406 6.43848L12 6.44238C11.6168 6.44238 11.2959 6.3455 11.1299 6.29004C10.936 6.22525 10.7444 6.14299 10.5732 6.06543C10.4035 5.98848 10.2086 5.89477 9.99316 5.78809L9.28809 5.43457C8.73147 5.15359 8.11531 5 7.5 5C5.48808 5 4 6.51496 4 8.39551C4.00012 9.57869 4.52443 10.8144 5.87695 12.4375C7.25135 14.0868 9.25434 15.876 11.8662 18.1992L11.8789 18.2109L11.8818 18.2139L12.0049 18.3232L12.123 18.2178L12.1582 18.1865L13.998 16.54C15.7226 14.9809 17.1025 13.6669 18.1299 12.4316C19.4778 10.811 19.9999 9.57668 20 8.39551ZM21.9902 8.74023C21.7868 12.2837 18.4567 15.2517 13.4893 19.6797L13.4502 19.7148L13.332 19.8203L12.9102 20.1885C12.5359 20.5043 12.2862 20.6615 12.001 20.6611L11.8604 20.6484C11.6289 20.6041 11.4047 20.449 11.0938 20.1846L10.6729 19.8154L10.5498 19.7051L10.5371 19.6943C5.5548 15.2626 2.21358 12.29 2.00977 8.74023L2 8.39551C2 5.37425 4.42 3 7.5 3L7.85254 3.01074C8.67327 3.06114 9.47051 3.28554 10.1895 3.64844C11.1062 4.11122 11.6222 4.37163 11.8965 4.42969L12 4.44238C12.1786 4.44238 12.5182 4.29381 13.1191 3.99609L13.8105 3.64844C14.632 3.23377 15.5558 3 16.5 3L16.7871 3.00684C19.7291 3.14909 22 5.46878 22 8.39551L21.9902 8.74023Z" fill="#292929"/>
</svg>
