<svg width="24" height="24" viewBox="0 0 24 24" fill="none" xmlns="http://www.w3.org/2000/svg">
<path d="M20.3999 8.99548C20.3999 7.11493 18.9118 5.59998 16.8999 5.59998C16.3614 5.59998 15.8221 5.7173 15.3228 5.93494L15.1118 6.03455C14.605 6.29037 14.1661 6.51155 13.8267 6.66541C13.6556 6.74297 13.4639 6.82523 13.27 6.89001C13.1248 6.93854 12.8608 7.01909 12.5405 7.03845L12.3999 7.04236C12.0167 7.04236 11.6958 6.94548 11.5298 6.89001C11.3359 6.82523 11.1443 6.74297 10.9731 6.66541C10.8034 6.58846 10.6085 6.49474 10.3931 6.38806L9.68799 6.03455C9.13138 5.75357 8.51521 5.59998 7.8999 5.59998C5.88799 5.59998 4.3999 7.11493 4.3999 8.99548C4.40002 10.1787 4.92433 11.4144 6.27686 13.0375C7.65125 14.6868 9.65424 16.4759 12.2661 18.7992L12.2788 18.8109L12.2817 18.8138L12.4048 18.9232L12.5229 18.8177L12.5581 18.7865L14.3979 17.14C16.1225 15.5809 17.5024 14.2668 18.5298 13.0316C19.8777 11.411 20.3998 10.1767 20.3999 8.99548ZM22.3901 9.34021C22.1867 12.8837 18.8566 15.8516 13.8892 20.2797L13.8501 20.3148L13.7319 20.4203L13.3101 20.7885C12.9358 21.1043 12.6861 21.2615 12.4009 21.2611L12.2603 21.2484C12.0288 21.204 11.8046 21.049 11.4937 20.7845L11.0728 20.4154L10.9497 20.3051L10.937 20.2943C5.9547 15.8625 2.61349 12.89 2.40967 9.34021L2.3999 8.99548C2.3999 5.97423 4.8199 3.59998 7.8999 3.59998L8.25244 3.61072C9.07317 3.66112 9.87042 3.88552 10.5894 4.24841C11.5061 4.71119 12.0221 4.97161 12.2964 5.02966L12.3999 5.04236C12.5785 5.04236 12.9181 4.89379 13.519 4.59607L14.2104 4.24841C15.032 3.83375 15.9557 3.59998 16.8999 3.59998L17.187 3.60681C20.129 3.74907 22.3999 6.06876 22.3999 8.99548L22.3901 9.34021Z" fill="#292929"/>
<path d="M20.3999 8.99548C20.3999 7.11493 18.9118 5.59998 16.8999 5.59998C16.3614 5.59998 15.8221 5.7173 15.3228 5.93494L15.1118 6.03455C14.605 6.29037 14.1661 6.51155 13.8267 6.66541C13.6556 6.74297 13.4639 6.82523 13.27 6.89001C13.1248 6.93854 12.8608 7.01909 12.5405 7.03845L12.3999 7.04236C12.0167 7.04236 11.6958 6.94548 11.5298 6.89001C11.3359 6.82523 11.1443 6.74297 10.9731 6.66541C10.8034 6.58846 10.6085 6.49474 10.3931 6.38806L9.68799 6.03455C9.13138 5.75357 8.51521 5.59998 7.8999 5.59998C5.88799 5.59998 4.3999 7.11493 4.3999 8.99548C4.40002 10.1787 4.92433 11.4144 6.27686 13.0375C7.65125 14.6868 9.65424 16.4759 12.2661 18.7992L12.2788 18.8109L12.2817 18.8138L12.4048 18.9232L12.5229 18.8177L12.5581 18.7865L14.3979 17.14C16.1225 15.5809 17.5024 14.2668 18.5298 13.0316C19.8777 11.411 20.3998 10.1767 20.3999 8.99548Z" fill="#292929"/>
</svg>
