<svg width="24" height="24" viewBox="0 0 24 24" fill="none" xmlns="http://www.w3.org/2000/svg">
<path d="M2.625 21.375L5.625 19.875L4.125 18.375L2.625 21.375Z" fill="black"/>
<path d="M15.375 9.375C15.7892 9.375 16.125 9.03921 16.125 8.625C16.125 8.21079 15.7892 7.875 15.375 7.875C14.9608 7.875 14.625 8.21079 14.625 8.625C14.625 9.03921 14.9608 9.375 15.375 9.375Z" fill="black"/>
<path d="M3.96492 17.3877C4.28219 17.3362 4.60483 17.4407 4.83211 17.668L6.33211 19.168C6.55939 19.3952 6.66385 19.7179 6.61238 20.0352C6.56089 20.3524 6.35985 20.6258 6.07234 20.7695L3.07234 22.2695C2.68735 22.462 2.22241 22.3864 1.91805 22.082C1.61368 21.7777 1.53805 21.3127 1.73055 20.9277L3.23055 17.9277L3.29012 17.8242C3.44304 17.5923 3.68721 17.4328 3.96492 17.3877ZM21.3741 1.625C21.3744 1.625 21.3751 1.625 21.3751 2.625L22.3751 2.62598V2.64551C22.375 2.65678 22.3744 2.67277 22.3741 2.69238C22.3735 2.73186 22.3726 2.78815 22.3702 2.85938C22.3654 3.00179 22.3556 3.20562 22.337 3.45996C22.2998 3.96805 22.2257 4.68192 22.0782 5.51758C21.7849 7.1793 21.1929 9.37228 19.9825 11.3896C19.4653 12.2516 18.7186 13.058 17.8712 13.7959C17.8732 13.822 17.8751 13.8484 17.8751 13.875V13.8975C17.875 13.9097 17.8744 13.9267 17.8741 13.9482C17.8735 13.9919 17.8726 14.0546 17.8702 14.1328C17.8655 14.289 17.8565 14.51 17.838 14.7764C17.8009 15.3071 17.7259 16.0321 17.5743 16.79C17.4245 17.539 17.1898 18.3708 16.8096 19.0889C16.4341 19.7982 15.8486 20.5208 14.9415 20.8232C13.7279 21.2278 12.5281 21.4269 11.6417 21.5254C11.1961 21.5749 10.8235 21.5997 10.5596 21.6123C10.4276 21.6186 10.3219 21.6214 10.2481 21.623C10.2113 21.6239 10.1819 21.6248 10.1612 21.625H10.1251C9.66621 21.625 9.26664 21.3124 9.15535 20.8672L8.47273 18.1367L5.86336 15.5273L3.13289 14.8447C2.68772 14.7334 2.37508 14.3339 2.37508 13.875V13.8389C2.3753 13.8182 2.37621 13.7887 2.37703 13.752C2.37867 13.6782 2.38148 13.5725 2.38777 13.4404C2.40034 13.1766 2.42518 12.804 2.47469 12.3584C2.57318 11.4719 2.7723 10.2722 3.17683 9.05859C3.47932 8.15148 4.20185 7.56597 4.91121 7.19043C5.62926 6.8103 6.46108 6.57558 7.21004 6.42578C7.96795 6.2742 8.69301 6.19913 9.22371 6.16211C9.4901 6.14353 9.71109 6.13462 9.86726 6.12988C9.94546 6.12751 10.0082 6.1266 10.0518 6.12598C10.0733 6.12567 10.0903 6.12509 10.1026 6.125H10.1251L10.2032 6.12793C10.9411 5.28058 11.7485 4.53478 12.6104 4.01758C14.6278 2.80715 16.8208 2.21513 18.4825 1.92188C19.3182 1.77441 20.032 1.70027 20.5401 1.66309C20.7945 1.64448 20.9983 1.63468 21.1407 1.62988C21.2119 1.62748 21.2682 1.62662 21.3077 1.62598C21.3273 1.62566 21.3433 1.62509 21.3546 1.625H21.3741ZM15.7716 15.3799C15.1358 15.8023 14.4987 16.1871 13.8985 16.5264C12.7902 17.1528 11.7562 17.6578 11.0001 18.0059C10.8373 18.0808 10.6854 18.1448 10.5499 18.2051L10.8956 19.5869C11.0523 19.5747 11.2288 19.5585 11.421 19.5371C12.2219 19.4481 13.2724 19.2721 14.3087 18.9268C14.5264 18.8542 14.7849 18.6391 15.0421 18.1533C15.2947 17.6761 15.4819 17.0547 15.6134 16.3975C15.6835 16.0467 15.7337 15.6998 15.7716 15.3799ZM20.3096 3.68945C19.902 3.72846 19.3975 3.7905 18.8302 3.89062C17.3044 4.15987 15.3723 4.69293 13.6397 5.73242C12.01 6.71023 10.43 8.93453 9.21394 11.0859C8.62173 12.1337 8.1422 13.1156 7.81062 13.8359C7.71343 14.0471 7.63106 14.2362 7.56062 14.3965L9.60262 16.4385C9.76298 16.368 9.95279 16.2867 10.1641 16.1895C10.8845 15.8579 11.8663 15.3783 12.9141 14.7861C15.0655 13.5701 17.2898 11.99 18.2677 10.3604C19.3071 8.62781 19.8402 6.69565 20.1095 5.16992C20.2096 4.60213 20.2706 4.09729 20.3096 3.68945ZM8.61922 8.22754C8.2995 8.26535 7.95303 8.31664 7.60262 8.38672C6.9454 8.51816 6.32393 8.70538 5.84676 8.95801C5.36094 9.21522 5.14589 9.4737 5.07332 9.69141C4.72794 10.7277 4.55197 11.7782 4.46297 12.5791C4.44166 12.7709 4.42441 12.947 4.41219 13.1035L5.79402 13.4492C5.85427 13.3138 5.91937 13.1626 5.99422 13C6.34229 12.2438 6.84727 11.2099 7.47371 10.1016C7.813 9.50129 8.19669 8.86334 8.61922 8.22754ZM15.3751 8.375C15.237 8.375 15.1251 8.48693 15.1251 8.625C15.1251 8.76307 15.237 8.875 15.3751 8.875C15.5131 8.875 15.6251 8.76307 15.6251 8.625C15.6251 8.48693 15.5131 8.375 15.3751 8.375ZM21.3751 1.625C21.9274 1.625 22.3751 2.07272 22.3751 2.625H21.3751V1.625ZM17.1251 8.625C17.1251 9.5915 16.3416 10.375 15.3751 10.375C14.4086 10.375 13.6251 9.5915 13.6251 8.625C13.6251 7.6585 14.4086 6.875 15.3751 6.875C16.3416 6.875 17.1251 7.6585 17.1251 8.625Z" fill="black"/>
</svg>
