<svg preserveAspectRatio="none" width="100%" height="100%" overflow="visible" style="display: block;" viewBox="0 0 13.3333 10.6667" fill="none" xmlns="http://www.w3.org/2000/svg">
<g id="eye_fill">
<path id="Vector" fill-rule="evenodd" clip-rule="evenodd" d="M6.66667 0C4.80867 0 3.158 0.838 1.98267 1.87533C1.39333 2.396 0.906667 2.98 0.564 3.56267C0.226667 4.134 0 4.75333 0 5.33333C0 5.91333 0.226667 6.53267 0.564 7.104C0.906667 7.686 1.39267 8.27067 1.98267 8.79133C3.158 9.82867 4.80933 10.6667 6.66667 10.6667C8.52467 10.6667 10.1753 9.82867 11.3507 8.79133C11.9407 8.27067 12.4267 7.686 12.7693 7.104C13.1067 6.53267 13.3333 5.91333 13.3333 5.33333C13.3333 4.75333 13.1067 4.134 12.7693 3.56267C12.4267 2.98067 11.9407 2.396 11.3507 1.87533C10.1753 0.838 8.524 0 6.66667 0ZM8 5.33333C8.24 5.33333 8.46467 5.27 8.65933 5.15933C8.69486 5.56813 8.60378 5.97797 8.39846 6.33324C8.19313 6.68852 7.8835 6.97204 7.51155 7.14535C7.13961 7.31866 6.72336 7.37337 6.31926 7.30206C5.91517 7.23074 5.54278 7.03686 5.25263 6.7467C4.96247 6.45655 4.76859 6.08417 4.69728 5.68007C4.62596 5.27598 4.68067 4.85972 4.85398 4.48778C5.02729 4.11583 5.31081 3.8062 5.66609 3.60087C6.02137 3.39555 6.4312 3.30447 6.84 3.34C6.72441 3.54291 6.66413 3.77261 6.6652 4.00613C6.66628 4.23965 6.72866 4.4688 6.84612 4.67063C6.96358 4.87246 7.13198 5.03991 7.33448 5.15621C7.53698 5.27251 7.76648 5.33359 8 5.33333Z" fill="var(--fill-0, #ADADAD)"/>
</g>
</svg>
