<svg preserveAspectRatio="none" width="100%" height="100%" overflow="visible" style="display: block;" viewBox="0 0 13.3334 11.7741" fill="none" xmlns="http://www.w3.org/2000/svg">
<g id="heart_fill">
<g id="Vector (Stroke)">
<path d="M12.0001 3.59703C12.0001 2.34333 11.008 1.33336 9.66676 1.33336C9.30776 1.33336 8.94824 1.41157 8.61533 1.55666L8.47471 1.62307C8.13685 1.79362 7.84421 1.94107 7.61794 2.04364C7.50386 2.09535 7.37608 2.15019 7.24684 2.19338C7.15 2.22574 6.97406 2.27943 6.76051 2.29234L6.66676 2.29495C6.41128 2.29495 6.19737 2.23036 6.08669 2.19338C5.95744 2.15019 5.82967 2.09535 5.71559 2.04364C5.60243 1.99235 5.47248 1.92987 5.32887 1.85875L4.85882 1.62307C4.48775 1.43575 4.07697 1.33336 3.66676 1.33336C2.32549 1.33336 1.33343 2.34333 1.33343 3.59703C1.33351 4.38582 1.68305 5.20966 2.58473 6.29169C3.501 7.39121 4.83632 8.584 6.57757 10.1328L6.58603 10.1406L6.58799 10.1426L6.67002 10.2155L6.7488 10.1452L6.77223 10.1244L7.9988 9.02672C9.14849 7.98732 10.0684 7.11127 10.7534 6.28778C11.6519 5.20736 12 4.38448 12.0001 3.59703ZM13.3269 3.82685C13.1913 6.18915 10.9713 8.1678 7.6596 11.1198L7.63356 11.1433L7.55478 11.2136L7.27353 11.459C7.02404 11.6696 6.85757 11.7744 6.66742 11.7741L6.57367 11.7656C6.41939 11.7361 6.26989 11.6327 6.0626 11.4564L5.782 11.2103L5.69997 11.1367L5.6915 11.1296C2.36997 8.17507 0.142486 6.19339 0.00660817 3.82685L9.77516e-05 3.59703C9.77516e-05 1.58286 1.61343 2.4482e-05 3.66676 2.43187e-05L3.90179 0.00718578C4.44894 0.0407876 4.98044 0.190387 5.45973 0.432316C6.07091 0.740836 6.41491 0.914447 6.59775 0.953149L6.66676 0.961613C6.78582 0.961613 7.01224 0.862566 7.41286 0.664087L7.8738 0.432316C8.42146 0.155874 9.03728 2.44237e-05 9.66676 2.43187e-05L9.85817 0.00458161C11.8195 0.0994206 13.3334 1.64588 13.3334 3.59703L13.3269 3.82685Z" fill="var(--fill-0, #ADADAD)"/>
<path d="M12.0001 3.59703C12.0001 2.34333 11.008 1.33336 9.66676 1.33336C9.30776 1.33336 8.94824 1.41157 8.61533 1.55666L8.47471 1.62307C8.13685 1.79362 7.84421 1.94107 7.61794 2.04364C7.50386 2.09535 7.37608 2.15019 7.24684 2.19338C7.15 2.22574 6.97406 2.27943 6.76051 2.29234L6.66676 2.29495C6.41128 2.29495 6.19737 2.23036 6.08669 2.19338C5.95744 2.15019 5.82967 2.09535 5.71559 2.04364C5.60243 1.99235 5.47248 1.92987 5.32887 1.85875L4.85882 1.62307C4.48775 1.43575 4.07697 1.33336 3.66676 1.33336C2.32549 1.33336 1.33343 2.34333 1.33343 3.59703C1.33351 4.38582 1.68305 5.20966 2.58473 6.29169C3.501 7.39121 4.83632 8.584 6.57757 10.1328L6.58603 10.1406L6.58799 10.1426L6.67002 10.2155L6.7488 10.1452L6.77223 10.1244L7.9988 9.02672C9.14849 7.98732 10.0684 7.11127 10.7534 6.28778C11.6519 5.20736 12 4.38448 12.0001 3.59703Z" fill="var(--fill-0, #ADADAD)"/>
</g>
</g>
</svg>
