<svg preserveAspectRatio="none" width="100%" height="100%" overflow="visible" style="display: block;" viewBox="0 0 12 12.6667" fill="none" xmlns="http://www.w3.org/2000/svg">
<g id="coin_2_fill">
<path id="Vector" d="M12 8.762V9.66667C12 10.2093 11.746 10.6733 11.3933 11.038C11.0447 11.3993 10.5713 11.694 10.0387 11.9273C8.97067 12.394 7.54267 12.6667 6 12.6667C4.45733 12.6667 3.02933 12.3947 1.96133 11.9273C1.42867 11.694 0.955333 11.3993 0.606667 11.038C0.283333 10.7047 0.0433333 10.286 0.00533326 9.80067L0 9.66667V8.762C0.31 8.938 0.641333 9.094 0.996 9.22533C2.34933 9.726 4.11933 10.0053 6 10.0053C7.88067 10.0053 9.65067 9.726 11.004 9.22533C11.27 9.12667 11.5227 9.01467 11.7633 8.89L12 8.762ZM0 5.09533C0.31 5.27133 0.641333 5.42733 0.996 5.55867C2.34933 6.05933 4.11933 6.33867 6 6.33867C7.88067 6.33867 9.65067 6.05933 11.004 5.55867C11.3481 5.43166 11.6812 5.2767 12 5.09533V7.16533C11.5573 7.50703 11.0655 7.77989 10.5413 7.97467C9.37133 8.408 7.76533 8.67267 6 8.67267C4.23533 8.67267 2.62933 8.408 1.45867 7.97467C0.934459 7.77989 0.442688 7.50703 0 7.16533V5.09533ZM6 0C7.54267 0 8.97067 0.272 10.0387 0.739333C10.5713 0.972667 11.0447 1.26733 11.3933 1.62867C11.7167 1.962 11.9567 2.38067 11.9947 2.866L12 3V3.49867C11.5573 3.84038 11.0655 4.11324 10.5413 4.308C9.37133 4.74133 7.76533 5.006 6 5.006C4.23533 5.006 2.62933 4.74133 1.45867 4.308C1.00789 4.1408 0.580935 3.91533 0.188667 3.63733L0 3.49867V3C0 2.45733 0.254 1.99333 0.606667 1.62867C0.955333 1.26733 1.42867 0.972667 1.96133 0.739333C3.02933 0.272667 4.45733 0 6 0Z" fill="var(--fill-0, #16982B)"/>
</g>
</svg>
