<svg preserveAspectRatio="none" width="100%" height="100%" overflow="visible" style="display: block;" viewBox="0 0 15.5626 15.5626" fill="none" xmlns="http://www.w3.org/2000/svg">
<path id="Vector (Stroke)" d="M1.75494 11.822C1.9929 11.7834 2.23487 11.8618 2.40533 12.0322L3.53033 13.1572C3.70079 13.3277 3.77914 13.5697 3.74054 13.8076C3.70192 14.0456 3.55114 14.2506 3.33551 14.3584L1.08551 15.4834C0.796765 15.6278 0.448054 15.571 0.219784 15.3428C-0.00848642 15.1145 -0.065212 14.7658 0.0791588 14.4771L1.20416 12.2271L1.24884 12.1494C1.36353 11.9755 1.54666 11.8558 1.75494 11.822ZM14.8118 0C14.812 -7.97291e-08 14.8126 0 14.8126 0.75L15.5626 0.750732V0.765381C15.5625 0.773838 15.5621 0.785831 15.5618 0.800537C15.5613 0.830144 15.5607 0.872359 15.5589 0.925781C15.5553 1.03259 15.548 1.18547 15.534 1.37622C15.5061 1.75729 15.4505 2.29269 15.3399 2.91943C15.12 4.16572 14.6759 5.81046 13.7681 7.32349C13.3802 7.96997 12.8202 8.57477 12.1846 9.12817C12.1862 9.14776 12.1876 9.16752 12.1876 9.1875V9.20435C12.1875 9.21355 12.1871 9.22631 12.1868 9.24243C12.1864 9.27517 12.1857 9.32221 12.1839 9.38086C12.1803 9.49799 12.1737 9.66373 12.1597 9.86353C12.132 10.2616 12.0757 10.8053 11.962 11.3738C11.8496 11.9355 11.6736 12.5594 11.3885 13.0979C11.1068 13.6299 10.6677 14.1718 9.98736 14.3987C9.07715 14.7021 8.17735 14.8514 7.51251 14.9253C7.17833 14.9624 6.89885 14.9811 6.70098 14.9905C6.60194 14.9952 6.52268 14.9973 6.46734 14.9985C6.43975 14.9991 6.41767 14.9998 6.40216 15H6.37506C6.03091 15 5.73123 14.7655 5.64776 14.4316L5.1358 12.3838L3.17877 10.4268L1.13092 9.91479C0.797041 9.83133 0.562557 9.53165 0.562557 9.1875V9.1604C0.562724 9.14489 0.56341 9.12281 0.564022 9.09521C0.565252 9.03988 0.567362 8.96062 0.572079 8.86157C0.581504 8.66371 0.600136 8.38422 0.637264 8.05005C0.711136 7.3852 0.860472 6.48541 1.16388 5.5752C1.39074 4.89486 1.93264 4.45573 2.46466 4.17407C3.0032 3.88898 3.62706 3.71294 4.18878 3.60059C4.75721 3.4869 5.30101 3.4306 5.69903 3.40283C5.89883 3.3889 6.06457 3.38222 6.1817 3.37866C6.24035 3.37688 6.28739 3.3762 6.32013 3.37573C6.33625 3.3755 6.34901 3.37506 6.35821 3.375H6.37506L6.43365 3.3772C6.98704 2.74168 7.5926 2.18234 8.23907 1.79443C9.7521 0.886616 11.3968 0.442597 12.6431 0.222656C13.2699 0.112055 13.8053 0.0564537 14.1863 0.0285645C14.3771 0.0146069 14.53 0.00726242 14.6368 0.00366211C14.6902 0.00186138 14.7324 0.00121254 14.762 0.000732422C14.7767 0.000494523 14.7887 6.72986e-05 14.7972 0H14.8118ZM10.6099 10.3162C10.1331 10.633 9.65529 10.9216 9.20514 11.176C8.3739 11.6459 7.59843 12.0246 7.03131 12.2856C6.90922 12.3418 6.79534 12.3898 6.69366 12.4351L6.95294 13.4714C7.0705 13.4623 7.20287 13.4501 7.34698 13.4341C7.94769 13.3673 8.73557 13.2354 9.51275 12.9763C9.67604 12.9219 9.86989 12.7606 10.0628 12.3962C10.2523 12.0384 10.3927 11.5723 10.4913 11.0793C10.5439 10.8163 10.5816 10.5561 10.6099 10.3162ZM14.0135 1.54834C13.7077 1.5776 13.3294 1.62413 12.9039 1.69922C11.7596 1.90115 10.3105 2.30095 9.01104 3.08057C7.78878 3.81392 6.60372 5.48215 5.69171 7.0957C5.24755 7.88155 4.8879 8.61796 4.63922 9.1582C4.56632 9.31656 4.50454 9.45841 4.45172 9.57861L5.98321 11.1101C6.10349 11.0573 6.24584 10.9963 6.40435 10.9233C6.9446 10.6747 7.68101 10.315 8.46685 9.87085C10.0804 8.95884 11.7486 7.77377 12.482 6.55151C13.2616 5.2521 13.6614 3.80298 13.8633 2.65869C13.9385 2.23285 13.9842 1.85422 14.0135 1.54834ZM5.24566 4.9519C5.00587 4.98026 4.74602 5.01873 4.48321 5.07129C3.9903 5.16987 3.5242 5.31029 3.16632 5.49976C2.80196 5.69266 2.64067 5.88652 2.58624 6.0498C2.3272 6.82699 2.19522 7.61486 2.12848 8.21558C2.11249 8.35942 2.09955 8.49149 2.09039 8.60889L3.12677 8.86816C3.17195 8.76658 3.22078 8.6532 3.27691 8.53125C3.53797 7.96413 3.9167 7.18866 4.38653 6.35742C4.641 5.90722 4.92877 5.42875 5.24566 4.9519ZM10.3126 5.0625C10.209 5.0625 10.1251 5.14645 10.1251 5.25C10.1251 5.35355 10.209 5.4375 10.3126 5.4375C10.4161 5.4375 10.5001 5.35355 10.5001 5.25C10.5001 5.14645 10.4161 5.0625 10.3126 5.0625ZM14.8126 0C15.2268 0 15.5626 0.335786 15.5626 0.75H14.8126V0ZM11.6251 5.25C11.6251 5.97487 11.0374 6.5625 10.3126 6.5625C9.58768 6.5625 9.00006 5.97487 9.00006 5.25C9.00006 4.52513 9.58768 3.9375 10.3126 3.9375C11.0374 3.9375 11.6251 4.52513 11.6251 5.25Z" fill="var(--fill-0, #292929)"/>
</svg>
