<svg preserveAspectRatio="none" width="100%" height="100%" overflow="visible" style="display: block;" viewBox="0 0 13.3108 13.3135" fill="none" xmlns="http://www.w3.org/2000/svg">
<g id="phone_fill">
<path id="Vector" fill-rule="evenodd" clip-rule="evenodd" d="M9.79183 13.3116C8.83183 13.2763 6.11116 12.9003 3.26183 10.0516C0.413162 7.2023 0.037828 4.4823 0.001828 3.52163C-0.0515053 2.05763 1.06983 0.635629 2.36516 0.0802961C2.52115 0.0129407 2.69196 -0.0127036 2.86085 0.00587973C3.02973 0.0244631 3.19089 0.0866354 3.32849 0.186296C4.39516 0.963629 5.13116 2.13963 5.76316 3.0643C5.90222 3.26745 5.96167 3.51466 5.9302 3.75883C5.89873 4.00299 5.77852 4.22705 5.59249 4.3883L4.29183 5.3543C4.22899 5.39967 4.18476 5.46632 4.16735 5.54184C4.14993 5.61737 4.16053 5.69666 4.19716 5.76496C4.49183 6.3003 5.01583 7.09763 5.61583 7.69763C6.21649 8.29763 7.05116 8.8563 7.62383 9.1843C7.69563 9.2246 7.78014 9.23587 7.86 9.21578C7.93985 9.1957 8.00898 9.14578 8.05316 9.0763L8.89983 7.78763C9.05549 7.58086 9.28511 7.44234 9.54061 7.40108C9.79611 7.35983 10.0577 7.41903 10.2705 7.5663C11.2085 8.21563 12.3032 8.93896 13.1045 9.96496C13.2122 10.1036 13.2808 10.2686 13.303 10.4427C13.3251 10.6169 13.3001 10.7938 13.2305 10.955C12.6725 12.257 11.2605 13.3656 9.79183 13.3116Z" fill="var(--fill-0, #ADADAD)"/>
</g>
</svg>
